<svg xmlns="http://www.w3.org/2000/svg" xml:space="preserve" viewBox="0 0 16 16" id="Slack">
  <path d="M15.93 8.58a1.425 1.425 0 0 0-1.796-.915l-1.436.467-.975-3 1.436-.467a1.425 1.425 0 1 0-.881-2.711l-1.436.467-.467-1.436a1.424 1.424 0 1 0-2.71.881l.467 1.436-3 .975-.466-1.436a1.425 1.425 0 0 0-2.711.88l.467 1.437L.94 5.64a1.424 1.424 0 0 0-.884 1.734c.218.756 1.021 1.217 1.764.976l1.482-.482.975 3-1.482.482a1.426 1.426 0 0 0-.884 1.734c.218.756 1.021 1.218 1.764.976l1.483-.482.482 1.482a1.426 1.426 0 0 0 1.734.884c.756-.218 1.218-1.021.976-1.764l-.481-1.482 3-.975.482 1.482a1.426 1.426 0 0 0 1.734.884c.756-.218 1.218-1.021.976-1.764l-.482-1.482 1.436-.467a1.426 1.426 0 0 0 .915-1.796zM6.013 6.988l3-.975.975 3-3 .975-.975-3z" fill="#e11d48" class="color000000 svgShape"></path>
</svg>
